<?xml version="1.0" encoding="utf-8"?>
<!-- Generator: Adobe Illustrator 23.0.0, SVG Export Plug-In . SVG Version: 6.00 Build 0)  -->
<svg version="1.1" id="Layer_1" xmlns="http://www.w3.org/2000/svg" xmlns:xlink="http://www.w3.org/1999/xlink" x="0px" y="0px"
	 width="784px" height="116px" viewBox="0 0 784 116" enable-background="new 0 0 784 116" xml:space="preserve">
<g>
	<path fill="#7BC043" d="M8.94,111.58c5.12-4.65,9.53-8.9,14.19-12.86c13.89-11.81,28.26-22.97,44.46-31.55
		c24.97-13.23,51.09-20.27,79.33-13.66c17.85,4.18,32.8,13.72,45.03,27.41c0.51,0.57,0.8,1.32,0.67,2.59
		c-0.96-0.59-1.97-1.1-2.87-1.77c-12.86-9.69-27.2-16.01-43.15-18.27c-12.81-1.82-25.43-0.3-37.8,3.45
		c-14.92,4.53-28.47,11.75-40.89,21.08c-5.03,3.78-9.6,8.16-14.54,12.06c-1.65,1.3-3.73,2.31-5.77,2.85
		c-11.97,3.14-23.99,6.11-36.01,9.1C11.1,112.13,10.5,111.85,8.94,111.58z"/>
	<path fill="#E22726" d="M148.75,34.81c-1.31-0.76-2.7-1.42-3.93-2.29c-20.14-14.1-42.06-15.8-65.03-9.06
		c-17.22,5.05-32.53,13.81-46.43,25.12c-1.7,1.39-4,2.28-6.17,2.82c-6.72,1.66-13.5,3.04-20.26,4.49c-0.77,0.16-1.6,0.02-3.42,0.02
		c2.63-4.41,4.68-8.34,7.18-11.97c10.18-14.81,23.43-26.08,40.5-31.91c8.64-2.95,17.85-4.9,26.95-5.72
		c13.19-1.19,26.48-0.73,39.16,4.16c11.91,4.59,21.82,12.03,30.46,21.27c0.67,0.71,1.02,1.71,1.53,2.58
		C149.1,34.48,148.93,34.64,148.75,34.81z"/>
	<path fill="#FDC710" d="M10.3,79.19c1.54-2.21,2.82-4.67,4.67-6.58c17.08-17.63,36.36-32.14,59.61-40.69
		c21.03-7.73,42.07-7.71,62.9,0.91c10.8,4.47,19.99,11.35,28.35,19.41c0.91,0.88,1.58,2.02,2.36,3.04
		c-0.21,0.27-0.42,0.54-0.63,0.81c-1.97-1.15-3.97-2.26-5.89-3.47c-12.6-7.95-26.26-12.16-41.24-12.5
		c-25.36-0.58-47.53,8.3-66.72,23.9c-10.17,8.26-21.7,11.28-33.62,14.33c-2.98,0.76-6.05,1.2-9.07,1.79
		C10.78,79.81,10.54,79.5,10.3,79.19z"/>
</g>
<g>
	<path fill="#FFFFFF" d="M257.9,79.22c-2.46,5.23-5.93,9.25-10.39,12.06c-4.47,2.8-9.64,4.21-15.51,4.21
		c-5.8,0-10.96-1.4-15.46-4.21c-4.5-2.8-8.01-6.83-10.52-12.08c-2.51-5.25-3.77-11.41-3.77-18.49v-3.57
		c0-7.08,1.25-13.24,3.74-18.49c2.49-5.25,5.98-9.29,10.47-12.11c4.48-2.82,9.63-4.23,15.43-4.23c5.87,0,11.05,1.4,15.53,4.21
		c4.48,2.8,7.96,6.83,10.44,12.08c2.48,5.25,3.72,11.43,3.72,18.54v3.57C261.59,67.81,260.36,73.99,257.9,79.22z M244.45,39.01
		c-2.95-4.16-7.13-6.24-12.55-6.24c-3.49,0-6.51,0.93-9.05,2.79c-2.54,1.86-4.49,4.61-5.85,8.24c-1.35,3.64-2.03,8.05-2.03,13.23
		v3.67c0,5.18,0.68,9.6,2.05,13.26s3.33,6.42,5.89,8.29s5.58,2.81,9.07,2.81c5.41,0,9.58-2.09,12.5-6.26
		c2.92-4.17,4.38-10.21,4.38-18.1v-3.67C248.87,49.18,247.4,43.17,244.45,39.01z"/>
	<path fill="#FFFFFF" d="M324.23,83.84c-2.23,3.65-5.37,6.5-9.42,8.56c-4.04,2.05-8.9,3.08-14.58,3.08
		c-5.84,0-10.92-1.38-15.26-4.13c-4.34-2.75-7.68-6.68-10.03-11.76c-2.35-5.09-3.52-11.04-3.52-17.85v-5.63
		c0-6.82,1.2-12.77,3.6-17.85c2.4-5.09,5.8-9.02,10.22-11.79c4.42-2.77,9.58-4.16,15.48-4.16c5.58,0,10.34,1.04,14.28,3.11
		c3.95,2.07,7.02,4.96,9.22,8.66s3.55,7.98,4.04,12.84h-12.62c-0.56-4.76-1.97-8.34-4.23-10.74c-2.27-2.4-5.83-3.59-10.69-3.59
		c-5.45,0-9.56,2.01-12.35,6.04s-4.18,9.82-4.18,17.39v5.72c0,7.43,1.3,13.21,3.89,17.32s6.64,6.16,12.16,6.16
		c3.39,0,6.15-0.53,8.29-1.59c2.14-1.06,3.75-2.61,4.84-4.65c1.09-2.04,1.83-4.62,2.23-7.75h12.62
		C327.79,75.98,326.46,80.19,324.23,83.84z"/>
	<path fill="#FFFFFF" d="M385.83,84.33v10.17h-37.42h-9.29V23.29h12.67h33.75v10.22h-33.75v19.32h29.1v9.98h-29.1v21.52H385.83z"/>
	<path fill="#FFFFFF" d="M435.73,78.17h-27.34l-5.67,16.34h-13.25l26.85-71.22h8.41h2.98l26.95,71.22H441.4L435.73,78.17z
		 M432.16,67.94l-10.13-29.2l-10.13,29.2H432.16z"/>
	<path fill="#FFFFFF" d="M506.56,94.51L475.2,44.42v50.09h-12.67V23.29h12.67l31.45,50.19V23.29h12.57v71.22H506.56z"/>
</g>
<g>
	<path fill="#FFFFFF" d="M602.99,94.51h-6.02V63.35l0.54-31.65l-26.56,62.81h-4.65l-26.41-62.61l0.54,31.45v31.16h-6.02V23.29h5.33
		h2.59l26.32,62.81l26.32-62.81h8.02V94.51z"/>
	<path fill="#FFFFFF" d="M659.54,74.55h-32.38l-7.34,19.96h-6.26l26.9-71.22h4.4h1.32l26.95,71.22h-6.26L659.54,74.55z
		 M657.63,69.41l-14.28-38.79l-14.28,38.79H657.63z"/>
	<path fill="#FFFFFF" d="M724.89,89.42v5.09h-36.93h-4.26V23.29h6.07v66.13H724.89z"/>
	<path fill="#FFFFFF" d="M777.72,89.42v5.09h-36.93h-4.26V23.29h6.07v66.13H777.72z"/>
</g>
<g>
</g>
<g>
</g>
<g>
</g>
<g>
</g>
<g>
</g>
<g>
</g>
<g>
</g>
<g>
</g>
<g>
</g>
<g>
</g>
<g>
</g>
<g>
</g>
<g>
</g>
<g>
</g>
<g>
</g>
</svg>
