<svg id="map-g-f" xmlns="http://www.w3.org/2000/svg" viewBox="0 0 759.44 638"><defs><style>.cls-1{fill:#ded9c3;}.cls-2{fill:#72903a;}</style></defs><title>floor-plan-karachi</title><g id="base-ground"><path class="cls-1" d="M282.5,265.5h651v65h40s35,6,35,12v22l5,2s22,19,23,62,0,107,0,118-3,43-3,43h-8v64h-76v85h18s40,14,31,48-25,75-33,87a33.7,33.7,0,0,1-21,14s-14-8-16-18-2-8-2-8h-8v29h-211v7l-31,6v-4h-128v-18h-152l-23,1s-21-17-24-29-4-31-4-31h-60l-2-31-6-162h10l-4-66h15l-12-220Z" transform="translate(-277.5 -265.5)"/></g><g id="landmarks-ground"><g id="babyshop"><polygon class="cls-2" points="38.34 5.5 282.5 5.5 282.5 125.5 88.35 125.5 88.35 107.11 30.5 108.08 30.5 80.02 39.33 80.02 38.34 5.5"/></g><g id="bebek-t"><rect class="cls-2" x="290.5" y="5.5" width="34" height="120"/></g><g id="the-body-shop"><rect class="cls-2" x="333.5" y="5.5" width="34" height="120"/></g><g id="inglot"><rect class="cls-2" x="375.5" y="5.5" width="36" height="120"/></g><g id="kayseria"><rect class="cls-2" x="419.5" y="5.5" width="77" height="120"/></g><g id="diners"><rect class="cls-2" x="504.5" y="5.5" width="77" height="120"/></g><polygon id="suzuki" class="cls-2" points="588.5 6.5 652.5 6.5 652.5 69.5 666.5 69.5 666.5 125.5 588.5 125.5 588.5 6.5"/><g id="hemani"><path class="cls-2" d="M955,338h22s23,4,26,6l3,2v23l6,1s15,26,17,40,2,16,2,16H969l-14-25Z" transform="translate(-277.5 -265.5)"/></g><path id="urbansole" class="cls-2" d="M968,430h63s2,43,2,46v2H953Z" transform="translate(-277.5 -265.5)"/><polygon id="vacant-r" class="cls-2" points="673.5 217.5 754.5 218.5 755.5 276.5 685.5 276.5 685.5 290.5 665.5 290.5 665.5 298.5 657.5 298.5 673.5 217.5"/><path id="aliel" class="cls-2" d="M910,740V858h19s3,16,14,24,32-33,32-33,19-49,22-65c0,0,4-8-3-21,0,0-13-18-26-21Z" transform="translate(-277.5 -265.5)"/><rect id="fhs-by-hub" class="cls-2" x="545.5" y="474.5" width="37" height="147"/><rect id="vivo-smart-phone" class="cls-2" x="589.5" y="474.5" width="37" height="147"/><rect id="hobo-hub" class="cls-2" x="502.5" y="474.5" width="39" height="147"/><rect id="amin-aduar" class="cls-2" x="459.5" y="474.5" width="39" height="147"/><rect id="nakoosa" class="cls-2" x="416.5" y="474.5" width="40" height="147"/><rect id="allied-bank" class="cls-2" x="332.5" y="474.5" width="81" height="156"/><rect id="healthy-best" class="cls-2" x="296.5" y="474.5" width="28" height="29"/><rect id="casio-g-factory" class="cls-2" x="263.5" y="474.5" width="30" height="29"/><rect id="advance-telecom" class="cls-2" x="230.5" y="474.5" width="30" height="29"/><rect id="atm" class="cls-2" x="160.5" y="474.5" width="13" height="29"/><rect id="sams" class="cls-2" x="544.5" y="174.5" width="40" height="40"/><rect id="bebek" class="cls-2" x="296.5" y="174.5" width="31" height="39"/><rect id="hijabeaze" class="cls-2" x="330.5" y="174.5" width="40" height="75"/><path id="krude" class="cls-2" d="M651,440h40V597s-33,5-40,9Z" transform="translate(-277.5 -265.5)"/><path id="coco" class="cls-2" d="M694,440h40V606s-26-9-40-8Z" transform="translate(-277.5 -265.5)"/><path id="mantra" class="cls-2" d="M737,440V606s27,12,38,23l1-189Z" transform="translate(-277.5 -265.5)"/><path id="dawat" class="cls-2" d="M866,440h27s21,3,21,25l-3,15H866Z" transform="translate(-277.5 -265.5)"/><rect id="vacant-m" class="cls-2" x="501.5" y="174.5" width="40" height="75"/><polygon id="vacant-l" class="cls-2" points="544.5 217.5 632.5 217.5 624.5 249.5 544.5 249.5 544.5 217.5"/><path id="make-up-city" class="cls-2" d="M608,517l40,1-1,88s-25,8-50-28l4-4,5,2h2Z" transform="translate(-277.5 -265.5)"/><polygon id="de-tour" class="cls-2" points="288.5 280.5 317.5 251.5 327.5 251.5 327.5 301.5 317.5 310.5 288.5 280.5"/><path id="bonanza-r" class="cls-2" d="M779,517l122,1-15,94-2,23s-21,57-76,28l-11-9s-12-17-18-22Z" transform="translate(-277.5 -265.5)"/><path id="bonanza-l" class="cls-2" d="M571,443v40h34v32H594l-30,29-26-27s-14-8-20-32,7-36,7-36,8-9,16-9S571,443,571,443Z" transform="translate(-277.5 -265.5)"/><rect class="cls-2" x="94.5" y="477.5" width="29" height="25"/><rect class="cls-2" x="127.5" y="477.5" width="28" height="25"/><rect class="cls-2" x="94.5" y="536.5" width="29" height="25"/><rect class="cls-2" x="127.5" y="536.5" width="27" height="25"/></g></svg>